<?xml version="1.0" encoding="UTF-8"?>
<svg version="1.1" xmlns="http://www.w3.org/2000/svg" width="67" height="67">
  <style>
    path {
      fill: #000000;
    }
    @media (prefers-color-scheme: dark) {
      path {
        fill: #ffffff;
      }
    }
  </style>
<path d="M0 0 C1.32 0 2.64 0 4 0 C5.50585523 3.45581315 7.00368289 6.91504753 8.5 10.375 C8.92925781 11.35984375 9.35851562 12.3446875 9.80078125 13.359375 C10.40986328 14.77089844 10.40986328 14.77089844 11.03125 16.2109375 C11.40830078 17.08024902 11.78535156 17.94956055 12.17382812 18.84521484 C13 21 13 21 13 23 C14.98 23 16.96 23 19 23 C19 24.32 19 25.64 19 27 C18.01 27.66 17.02 28.32 16 29 C16.2165625 29.60328125 16.433125 30.2065625 16.65625 30.828125 C17.07390625 32.02695313 17.07390625 32.02695313 17.5 33.25 C17.7784375 34.03890625 18.056875 34.8278125 18.34375 35.640625 C19 38 19 38 19 42 C19.66 42 20.32 42 21 42 C22.35439668 44.70879335 22.06501451 47.00933268 22 50 C19.69921875 50.01953125 19.69921875 50.01953125 17 49 C15.47303249 46.38968424 14.67804945 43.5734553 13.8125 40.6875 C13.32107739 39.14907779 12.827649 37.61129458 12.33203125 36.07421875 C12.12296143 35.38932373 11.9138916 34.70442871 11.69848633 33.9987793 C10.91192705 31.6120003 10.91192705 31.6120003 9 28 C5.04 28 1.08 28 -3 28 C-3.226875 29.2375 -3.45375 30.475 -3.6875 31.75 C-5.02614208 37.72167284 -6.98467325 43.66070595 -10 49 C-12.1640625 50.34765625 -12.1640625 50.34765625 -14 51 C-15.56257372 46.27635761 -14.15474042 43.16000756 -12.125 38.875 C-11.56433273 37.64358011 -11.00440966 36.41182105 -10.4453125 35.1796875 C-9.96835938 34.13039062 -9.49140625 33.08109375 -9 32 C-8.67 31.01 -8.34 30.02 -8 29 C-8.99 28.67 -9.98 28.34 -11 28 C-11 26.68 -11 25.36 -11 24 C-9.02 24 -7.04 24 -5 24 C-4.58621094 22.71222656 -4.58621094 22.71222656 -4.1640625 21.3984375 C-3.02542236 18.07421963 -1.74150269 14.86145373 -0.375 11.625 C0.07101562 10.56539062 0.51703125 9.50578125 0.9765625 8.4140625 C1.31429688 7.61742187 1.65203125 6.82078125 2 6 C1.01 5.67 0.02 5.34 -1 5 C-0.67 3.35 -0.34 1.7 0 0 Z M3 15 C0.64089647 19.2637281 0.64089647 19.2637281 0 24 C2.64 23.67 5.28 23.34 8 23 C6.69844994 18.92035719 6.69844994 18.92035719 5 15 C4.34 15 3.68 15 3 15 Z " transform="translate(15,6)"/>
<path d="M0 0 C0.56170898 0.32145996 1.12341797 0.64291992 1.70214844 0.97412109 C4.21856933 2.09758057 6.02344205 2.30859393 8.765625 2.4140625 C10.09980469 2.47207031 10.09980469 2.47207031 11.4609375 2.53125 C12.38132812 2.5621875 13.30171875 2.593125 14.25 2.625 C15.65378906 2.68300781 15.65378906 2.68300781 17.0859375 2.7421875 C19.39043054 2.83624844 21.69492013 2.92189399 24 3 C23.67 4.32 23.34 5.64 23 7 C19.13276369 8.26582219 15.26848738 8.1118765 11.25 8.0625 C10.55261719 8.05798828 9.85523437 8.05347656 9.13671875 8.04882812 C7.42444197 8.0371002 5.71220967 8.01916653 4 8 C4.14033111 9.97956441 4.2874123 11.95865141 4.4375 13.9375 C4.51871094 15.03964844 4.59992187 16.14179688 4.68359375 17.27734375 C4.70418084 19.91109903 4.70418084 19.91109903 6 21 C7.51928038 21.07179964 9.04167482 21.08392007 10.5625 21.0625 C11.38878906 21.05347656 12.21507813 21.04445313 13.06640625 21.03515625 C13.70449219 21.02355469 14.34257813 21.01195313 15 21 C15 22.32 15 23.64 15 25 C11.7 25.66 8.4 26.32 5 27 C5 33.93 5 40.86 5 48 C3.35 48 1.7 48 0 48 C-1 47 -1 47 -1.1328125 45.1015625 C-1.1125771 38.68693981 -0.67899583 32.37771087 0 26 C-1.65 25.67 -3.3 25.34 -5 25 C-4.67 24.01 -4.34 23.02 -4 22 C-2.68 21.67 -1.36 21.34 0 21 C-0.33 17.04 -0.66 13.08 -1 9 C-2.98 9 -4.96 9 -7 9 C-7.5625 7.0625 -7.5625 7.0625 -8 5 C-7 4 -7 4 -3.9375 3.9375 C-2.4834375 3.9684375 -2.4834375 3.9684375 -1 4 C-0.67 2.68 -0.34 1.36 0 0 Z " transform="translate(43,7)"/>
<path d="M0 0 C3 1 3 1 3 1 Z " transform="translate(31,59)"/>
<path d="M0 0 C3 1 3 1 3 1 Z " transform="translate(0,59)"/>
</svg>

