<svg width="40" height="19" viewBox="0 0 40 19" fill="none" xmlns="http://www.w3.org/2000/svg">
<path d="M39.2443 3.8956L34.1455 0.827702C33.9706 0.722904 33.7772 0.654258 33.5761 0.625708C33.3751 0.597157 33.1705 0.609263 32.9741 0.661332C32.7777 0.7134 32.5934 0.804403 32.4316 0.929118C32.2699 1.05383 32.134 1.2098 32.0318 1.38806C30.8319 3.48522 29.1217 5.23329 27.0653 6.46418C22.784 9.04528 17.1956 9.04684 12.905 6.46261C10.8504 5.23169 9.14175 3.4842 7.94317 1.38806C7.84076 1.20975 7.70472 1.05374 7.54287 0.929012C7.38102 0.804279 7.19653 0.71327 7 0.661206C6.80347 0.609143 6.59876 0.597049 6.39762 0.625621C6.19648 0.654193 6.00286 0.722867 5.82789 0.827702L0.72752 3.89716C0.38548 4.11306 0.140228 4.45658 0.0443237 4.85412C-0.0515804 5.25166 0.00949505 5.67159 0.214461 6.02389C0.419427 6.3762 0.751973 6.63285 1.14083 6.73885C1.52969 6.84485 1.94391 6.79176 2.29473 6.59096L6.1204 4.29004C7.17034 5.79268 8.45582 7.11219 9.91373 8.20004L7.83078 12.4341C7.74041 12.618 7.68657 12.8183 7.67232 13.0234C7.65807 13.2285 7.6837 13.4345 7.74775 13.6296C7.81179 13.8246 7.913 14.0049 8.04558 14.1602C8.17817 14.3155 8.33954 14.4427 8.52048 14.5346C8.70142 14.6265 8.89839 14.6812 9.10015 14.6957C9.3019 14.7102 9.50448 14.6842 9.69633 14.619C9.88818 14.5539 10.0655 14.451 10.2183 14.3162C10.371 14.1814 10.4961 14.0174 10.5865 13.8334L12.5725 9.79503C14.4183 10.7076 16.4012 11.2726 18.4457 11.4636V17.0453C18.4457 17.4604 18.6079 17.8585 18.8966 18.1521C19.1853 18.4456 19.5769 18.6105 19.9852 18.6105C20.3935 18.6105 20.785 18.4456 21.0738 18.1521C21.3625 17.8585 21.5247 17.4604 21.5247 17.0453V11.462C23.5656 11.2719 25.5556 10.7065 27.3979 9.79347L29.3838 13.8318C29.5663 14.2034 29.8865 14.486 30.274 14.6175C30.6614 14.749 31.0844 14.7186 31.4498 14.5331C31.8153 14.3475 32.0932 14.0219 32.2226 13.628C32.3519 13.2341 32.322 12.804 32.1395 12.4325L30.0581 8.20004C31.5193 7.1098 32.7999 5.78932 33.8515 4.28848L37.6756 6.5894C37.8494 6.69423 38.0419 6.76322 38.242 6.79242C38.4421 6.82162 38.6459 6.81047 38.8417 6.7596C39.0376 6.70873 39.2217 6.61913 39.3835 6.49593C39.5452 6.37273 39.6816 6.21833 39.7847 6.04156C39.8878 5.86478 39.9557 5.66909 39.9844 5.46566C40.0131 5.26222 40.0021 5.05503 39.9521 4.8559C39.9021 4.65677 39.8139 4.46962 39.6928 4.30512C39.5716 4.14062 39.4197 4.00199 39.2459 3.89716L39.2443 3.8956Z" fill="#A5BCD5"/>
</svg>
