<svg width="40" height="25" viewBox="0 0 40 25" fill="none" xmlns="http://www.w3.org/2000/svg">
<path d="M39.7028 11.4001C35.6698 5.90942 27.7839 0 19.9996 0C12.2153 0 4.32942 5.90942 0.296424 11.4001C0.10384 11.6626 0 11.9797 0 12.3053C0 12.6308 0.10384 12.9479 0.296424 13.2104C4.32942 18.7011 12.2153 24.6105 19.9996 24.6105C27.7839 24.6105 35.6698 18.7011 39.7028 13.2104C39.8959 12.9481 40 12.6309 40 12.3053C40 11.9796 39.8959 11.6624 39.7028 11.4001ZM19.9996 21.5504C13.6931 21.5504 7.20486 16.917 3.46125 12.3053C7.20486 7.69348 13.6931 3.06015 19.9996 3.06015C26.3062 3.06015 32.7929 7.69348 36.538 12.3053C32.7929 16.9155 26.3062 21.5504 19.9996 21.5504Z" fill="#A5BCD5"/>
<path d="M20 5C16.1402 5 13 8.1402 13 12C13 15.8598 16.1402 19 20 19C23.8598 19 27 15.8598 27 12C27 8.1402 23.8598 5 20 5ZM20 16.2C17.6844 16.2 15.8 14.3156 15.8 12C15.8 9.6844 17.6844 7.8 20 7.8C22.3156 7.8 24.2 9.6844 24.2 12C24.2 14.3156 22.3156 16.2 20 16.2Z" fill="#A5BCD5"/>
</svg>
